HIERARCHY
ROOT Hips
{
	OFFSET 0.000000 100.481300 0.000000
	CHANNELS 6 Xposition Yposition Zposition Xrotation Yrotation Zrotation
	JOINT Spine
	{
		OFFSET -0.279200 12.230698 -2.892100
		CHANNELS 3 Xrotation Yrotation Zrotation
		JOINT Spine1
		{
			OFFSET -0.325700 14.269203 -3.374200
			CHANNELS 3 Xrotation Yrotation Zrotation
			JOINT Spine2
			{
				OFFSET -0.372300 16.307602 -0.352600
				CHANNELS 3 Xrotation Yrotation Zrotation
				JOINT Neck
				{
					OFFSET -0.418800 17.814194 8.416900
					CHANNELS 3 Xrotation Yrotation Zrotation
					JOINT Head
					{
						OFFSET 0.000000 7.031097 3.806800
						CHANNELS 3 Xrotation Yrotation Zrotation
						JOINT HeadTop_End
						{
							OFFSET 0.000000 24.646606 12.978600
							CHANNELS 3 Xrotation Yrotation Zrotation
							End Site
							{
								OFFSET 0.000000 27.854965 0.000000
							}
						}
					}
				}
				JOINT LeftShoulder
				{
					OFFSET 16.952999 14.495407 -7.737500
					CHANNELS 3 Xrotation Yrotation Zrotation
					JOINT LeftArm
					{
						OFFSET 9.308998 -2.777710 0.208600
						CHANNELS 3 Xrotation Yrotation Zrotation
						JOINT LeftForeArm
						{
							OFFSET 29.972298 0.000000 0.000000
							CHANNELS 3 Xrotation Yrotation Zrotation
							JOINT LeftHand
							{
								OFFSET 26.026505 0.000000 0.000000
								CHANNELS 3 Xrotation Yrotation Zrotation
								JOINT LeftHandThumb1
								{
									OFFSET 12.240501 -7.147949 9.207150
									CHANNELS 3 Xrotation Yrotation Zrotation
									JOINT LeftHandThumb2
									{
										OFFSET 4.138618 -2.389435 2.389433
										CHANNELS 3 Xrotation Yrotation Zrotation
										JOINT LeftHandThumb3
										{
											OFFSET 2.726913 -1.574387 1.574386
											CHANNELS 3 Xrotation Yrotation Zrotation
											JOINT LeftHandThumb4
											{
												OFFSET 3.941010 -2.275345 2.275342
												CHANNELS 3 Xrotation Yrotation Zrotation
												End Site
												{
													OFFSET -0.005798 5.087799 0.009903
												}
											}
										}
									}
								}
								JOINT LeftHandIndex1
								{
									OFFSET 24.424698 -1.985611 5.953459
									CHANNELS 3 Xrotation Yrotation Zrotation
									JOINT LeftHandIndex2
									{
										OFFSET 6.426697 0.000000 0.000000
										CHANNELS 3 Xrotation Yrotation Zrotation
										JOINT LeftHandIndex3
										{
											OFFSET 5.337898 0.000000 0.000000
											CHANNELS 3 Xrotation Yrotation Zrotation
											JOINT LeftHandIndex4
											{
												OFFSET 4.409401 0.000000 0.000000
												CHANNELS 3 Xrotation Yrotation Zrotation
												End Site
												{
													OFFSET 0.000000 4.409363 0.014373
												}
											}
										}
									}
								}
								JOINT LeftHandMiddle1
								{
									OFFSET 23.810104 0.000000 0.000000
									CHANNELS 3 Xrotation Yrotation Zrotation
									JOINT LeftHandMiddle2
									{
										OFFSET 7.176498 0.000000 0.000000
										CHANNELS 3 Xrotation Yrotation Zrotation
										JOINT LeftHandMiddle3
										{
											OFFSET 6.774902 0.000000 0.000000
											CHANNELS 3 Xrotation Yrotation Zrotation
											JOINT LeftHandMiddle4
											{
												OFFSET 5.403328 0.000000 0.000000
												CHANNELS 3 Xrotation Yrotation Zrotation
												End Site
												{
													OFFSET -0.027702 5.403244 0.017414
												}
											}
										}
									}
								}
								JOINT LeftHandRing1
								{
									OFFSET 22.908401 -0.839279 -6.020567
									CHANNELS 3 Xrotation Yrotation Zrotation
									JOINT LeftHandRing2
									{
										OFFSET 6.337502 0.000000 0.000000
										CHANNELS 3 Xrotation Yrotation Zrotation
										JOINT LeftHandRing3
										{
											OFFSET 5.779297 0.000000 0.000000
											CHANNELS 3 Xrotation Yrotation Zrotation
											JOINT LeftHandRing4
											{
												OFFSET 4.965698 0.000000 0.000000
												CHANNELS 3 Xrotation Yrotation Zrotation
												End Site
												{
													OFFSET 0.000000 4.965668 0.016186
												}
											}
										}
									}
								}
								JOINT LeftHandPinky1
								{
									OFFSET 20.037003 -1.530319 -10.950146
									CHANNELS 3 Xrotation Yrotation Zrotation
									JOINT LeftHandPinky2
									{
										OFFSET 5.254700 0.000000 0.000000
										CHANNELS 3 Xrotation Yrotation Zrotation
										JOINT LeftHandPinky3
										{
											OFFSET 4.810204 0.000000 0.000000
											CHANNELS 3 Xrotation Yrotation Zrotation
											JOINT LeftHandPinky4
											{
												OFFSET 3.647202 0.000000 0.000000
												CHANNELS 3 Xrotation Yrotation Zrotation
												End Site
												{
													OFFSET 0.000000 3.647186 0.011889
												}
											}
										}
									}
								}
							}
						}
					}
				}
				JOINT RightShoulder
				{
					OFFSET -15.141001 14.495407 -7.737500
					CHANNELS 3 Xrotation Yrotation Zrotation
					JOINT RightArm
					{
						OFFSET -9.308998 -2.777710 0.208500
						CHANNELS 3 Xrotation Yrotation Zrotation
						JOINT RightForeArm
						{
							OFFSET -29.972300 0.000000 0.000000
							CHANNELS 3 Xrotation Yrotation Zrotation
							JOINT RightHand
							{
								OFFSET -26.026505 0.000000 0.000000
								CHANNELS 3 Xrotation Yrotation Zrotation
								JOINT RightHandThumb1
								{
									OFFSET -12.240601 -7.148026 9.207092
									CHANNELS 3 Xrotation Yrotation Zrotation
									JOINT RightHandThumb2
									{
										OFFSET -4.138618 -2.389435 2.389433
										CHANNELS 3 Xrotation Yrotation Zrotation
										JOINT RightHandThumb3
										{
											OFFSET -2.726974 -1.574417 1.574421
											CHANNELS 3 Xrotation Yrotation Zrotation
											JOINT RightHandThumb4
											{
												OFFSET -3.941010 -2.275345 2.275343
												CHANNELS 3 Xrotation Yrotation Zrotation
												End Site
												{
													OFFSET 0.005814 5.087799 0.009927
												}
											}
										}
									}
								}
								JOINT RightHandIndex1
								{
									OFFSET -24.424698 -1.985657 5.953444
									CHANNELS 3 Xrotation Yrotation Zrotation
									JOINT RightHandIndex2
									{
										OFFSET -6.426697 0.000000 0.000000
										CHANNELS 3 Xrotation Yrotation Zrotation
										JOINT RightHandIndex3
										{
											OFFSET -5.337898 0.000000 0.000000
											CHANNELS 3 Xrotation Yrotation Zrotation
											JOINT RightHandIndex4
											{
												OFFSET -4.409401 0.000000 0.000000
												CHANNELS 3 Xrotation Yrotation Zrotation
												End Site
												{
													OFFSET 0.000000 4.409363 0.014408
												}
											}
										}
									}
								}
								JOINT RightHandMiddle1
								{
									OFFSET -23.810097 0.000000 0.000000
									CHANNELS 3 Xrotation Yrotation Zrotation
									JOINT RightHandMiddle2
									{
										OFFSET -7.176498 0.000000 0.000000
										CHANNELS 3 Xrotation Yrotation Zrotation
										JOINT RightHandMiddle3
										{
											OFFSET -6.774902 0.000000 0.000000
											CHANNELS 3 Xrotation Yrotation Zrotation
											JOINT RightHandMiddle4
											{
												OFFSET -5.403328 0.000000 0.000000
												CHANNELS 3 Xrotation Yrotation Zrotation
												End Site
												{
													OFFSET 0.027702 5.403244 0.017457
												}
											}
										}
									}
								}
								JOINT RightHandRing1
								{
									OFFSET -22.908302 -0.839325 -6.020576
									CHANNELS 3 Xrotation Yrotation Zrotation
									JOINT RightHandRing2
									{
										OFFSET -6.337502 0.000000 0.000000
										CHANNELS 3 Xrotation Yrotation Zrotation
										JOINT RightHandRing3
										{
											OFFSET -5.779297 0.000000 0.000000
											CHANNELS 3 Xrotation Yrotation Zrotation
											JOINT RightHandRing4
											{
												OFFSET -4.965698 0.000000 0.000000
												CHANNELS 3 Xrotation Yrotation Zrotation
												End Site
												{
													OFFSET 0.000000 4.965668 0.016226
												}
											}
										}
									}
								}
								JOINT RightHandPinky1
								{
									OFFSET -20.037003 -1.530334 -10.950259
									CHANNELS 3 Xrotation Yrotation Zrotation
									JOINT RightHandPinky2
									{
										OFFSET -5.254700 0.000000 0.000000
										CHANNELS 3 Xrotation Yrotation Zrotation
										JOINT RightHandPinky3
										{
											OFFSET -4.810204 0.000000 0.000000
											CHANNELS 3 Xrotation Yrotation Zrotation
											JOINT RightHandPinky4
											{
												OFFSET -3.647202 0.000000 0.000000
												CHANNELS 3 Xrotation Yrotation Zrotation
												End Site
												{
													OFFSET 0.000000 3.647186 0.011917
												}
											}
										}
									}
								}
							}
						}
					}
				}
			}
		}
	}
	JOINT LeftUpLeg
	{
		OFFSET 15.427100 -6.655098 0.678600
		CHANNELS 3 Xrotation Yrotation Zrotation
		JOINT LeftLeg
		{
			OFFSET 4.081073 -39.591068 13.024000
			CHANNELS 3 Xrotation Yrotation Zrotation
			JOINT LeftFoot
			{
				OFFSET -4.081074 -37.707932 -15.979700
				CHANNELS 3 Xrotation Yrotation Zrotation
				JOINT LeftToeBase
				{
					OFFSET 5.346399 -15.068900 20.645000
					CHANNELS 3 Xrotation Yrotation Zrotation
					JOINT LeftToe_End
					{
						OFFSET 2.754700 0.931300 11.300900
						CHANNELS 3 Xrotation Yrotation Zrotation
						End Site
						{
							OFFSET 0.000000 11.669021 0.000000
						}
					}
				}
			}
		}
	}
	JOINT RightUpLeg
	{
		OFFSET -15.569500 -6.655098 0.678600
		CHANNELS 3 Xrotation Yrotation Zrotation
		JOINT RightLeg
		{
			OFFSET -4.081825 -39.591045 13.023800
			CHANNELS 3 Xrotation Yrotation Zrotation
			JOINT RightFoot
			{
				OFFSET 4.081824 -37.707954 -15.979600
				CHANNELS 3 Xrotation Yrotation Zrotation
				JOINT RightToeBase
				{
					OFFSET -5.346400 -15.068900 20.645000
					CHANNELS 3 Xrotation Yrotation Zrotation
					JOINT RightToe_End
					{
						OFFSET -2.754700 0.931300 11.300900
						CHANNELS 3 Xrotation Yrotation Zrotation
						End Site
						{
							OFFSET 0.000000 11.669021 0.000000
						}
					}
				}
			}
		}
	}
}
MOTION
Frames: 4
Frame Time: 0.033333
-0.587341 29.764694 297.764343 270.984368 -15.861813 42.074512 6.068650 -0.721268 -3.281340 12.168038 -1.692566 -2.570665 12.168061 -1.692569 -2.570685 49.504320 -0.091884 7.012988 -10.323351 -0.477796 -2.724853 0.000001 -0.000001 0.000002 0.132945 -13.621814 -15.644029 -29.582652 -12.777354 -27.715815 12.173649 -49.827688 2.554451 14.795914 -7.971085 14.484572 9.153786 4.797773 -5.500949 -0.317654 0.071289 0.789586 0.000010 -0.000004 0.000001 -0.000000 0.000001 0.000002 -2.914612 -10.926021 -49.695558 -2.843372 -3.065342 -56.861280 0.000001 0.000001 -0.000002 -0.000001 -0.000001 -0.000001 -0.712425 6.203839 -59.750550 -3.370244 -4.777526 -62.480781 -0.000001 0.000004 0.000000 -0.000000 -0.000000 0.000002 0.020842 13.065319 -76.396731 -2.496962 -4.191184 -72.718415 0.000001 -0.000002 0.000001 0.000000 -0.000001 0.000001 2.056504 17.214194 -80.056237 -1.446005 -6.217847 -80.102007 0.000001 0.000002 0.000000 -0.000001 -0.000000 -0.000000 -2.708835 36.385903 20.364486 -27.722517 23.545691 2.682683 28.091272 51.976435 -4.757094 18.596875 1.861776 -17.139943 -7.779909 -5.329227 0.148939 8.129441 -19.692098 -2.861070 0.000004 0.000006 0.000005 -0.000001 -0.000001 0.000000 -1.059105 -1.502549 4.603950 0.139399 -1.106666 17.035542 -0.000002 -0.000000 -0.000002 -0.000002 -0.000000 -0.000002 -0.651730 -2.958815 12.872268 -0.671642 1.832002 30.821324 0.000000 0.000001 0.000000 -0.000001 -0.000001 0.000002 2.367880 -7.264683 22.109587 -0.989667 3.764181 37.430506 0.000001 0.000000 0.000001 0.000002 0.000001 -0.000002 3.238808 -9.522140 24.543049 -1.475496 7.891327 41.430602 -0.000001 0.000002 0.000001 -0.000001 0.000002 -0.000000 -104.852747 -10.737104 22.995775 87.382073 4.897265 -5.800013 7.685116 -0.506173 -7.288439 3.557398 8.758291 -9.677027 0.000001 -0.000000 0.000000 -63.132156 -0.482882 -18.862493 100.632742 8.907575 6.957119 -8.226784 -1.844155 10.421279 0.669932 -5.890067 4.530022 0.000001 0.000001 0.000001 
-3.048443 24.571793 306.486725 284.523852 -19.581681 39.005738 6.535501 -0.713883 -3.136304 13.090653 -1.312794 -2.860623 13.090667 -1.312799 -2.860628 48.073101 0.314124 4.792409 -11.329887 0.784134 -3.701423 -0.000000 -0.000001 0.000000 -0.137393 -13.263378 -19.108938 -27.084721 -10.028815 -25.947660 10.848197 -40.140889 -1.650111 13.970511 -8.688971 15.216919 9.150096 4.791653 -5.501660 -0.310993 0.085869 0.791830 0.000008 -0.000002 0.000003 0.000002 0.000000 -0.000001 -2.914605 -10.926018 -49.695292 -2.843353 -3.065304 -56.861079 0.000000 0.000000 -0.000000 0.000000 0.000000 -0.000003 -0.712382 6.203865 -59.750304 -3.370219 -4.777524 -62.480556 -0.000001 0.000002 0.000001 0.000001 0.000000 0.000002 0.020890 13.065331 -76.396472 -2.496928 -4.191162 -72.718149 0.000001 -0.000003 0.000002 -0.000001 0.000001 0.000000 2.056540 17.214192 -80.055985 -1.445986 -6.217831 -80.101788 0.000000 0.000003 0.000000 -0.000001 -0.000002 -0.000001 -1.382249 37.435345 16.261579 -24.510313 15.889527 8.622001 26.961414 39.365034 0.578214 22.332820 8.467679 -20.654492 -9.129970 -4.786574 -0.105708 7.791908 -18.940140 -2.853652 0.000004 0.000006 0.000007 -0.000001 -0.000002 0.000004 -1.081592 -1.031948 4.550130 0.143822 -1.121158 16.884766 0.000002 -0.000002 -0.000002 0.000001 0.000000 -0.000000 -0.673598 -2.874545 12.592931 -0.653716 1.801785 30.428288 0.000000 0.000001 0.000004 0.000003 0.000005 0.000000 2.466025 -7.492723 21.502008 -0.989908 3.764517 37.435075 -0.000000 0.000000 -0.000000 -0.000000 0.000002 0.000000 3.583651 -10.288019 24.171435 -1.447869 7.860045 40.885178 0.000000 0.000001 -0.000000 0.000001 0.000000 0.000000 -95.678820 -8.311703 26.832555 85.316480 4.071577 -7.544598 3.292218 0.112940 -7.076183 3.097701 7.702999 -8.531827 -0.000001 0.000000 -0.000002 -62.179201 1.859956 -22.780513 99.180733 4.485731 7.938348 -5.323306 -1.910585 11.910155 1.942214 -6.444069 4.652699 -0.000000 -0.000002 -0.000001 
-5.209076 21.142326 313.030762 297.622160 -22.847411 36.135754 7.141189 -0.977414 -3.122105 14.306933 -0.975312 -2.947504 14.306919 -0.975317 -2.947477 45.377410 -0.079963 4.343513 -12.974410 1.334020 -5.200257 0.000000 -0.000001 0.000001 -0.397649 -13.745614 -20.435624 -24.774274 -7.066666 -25.161205 10.894337 -34.924123 -3.312792 13.962823 -10.025909 15.498792 9.150247 4.791919 -5.501608 -0.311305 0.085226 0.791728 0.000008 -0.000003 0.000008 0.000000 -0.000002 0.000002 -2.914621 -10.926038 -49.695459 -2.843374 -3.065322 -56.861222 -0.000000 0.000000 -0.000000 0.000000 0.000000 -0.000001 -0.712393 6.203856 -59.750468 -3.370226 -4.777513 -62.480692 0.000001 0.000004 -0.000002 0.000001 0.000002 -0.000001 0.020879 13.065320 -76.396649 -2.496948 -4.191147 -72.718306 0.000002 -0.000002 -0.000001 -0.000002 0.000001 0.000000 2.056529 17.214189 -80.056149 -1.446001 -6.217809 -80.101931 -0.000002 0.000002 -0.000000 -0.000000 0.000001 -0.000001 -0.580739 35.506988 13.790377 -20.621311 11.293781 11.150531 30.194221 28.642607 2.387583 27.915553 13.069622 -20.557577 -16.805868 -1.512286 -2.516681 6.195692 -15.349638 -2.756018 0.000003 0.000010 0.000005 -0.000000 -0.000000 -0.000000 -1.254963 1.146087 4.081337 0.163911 -1.188836 16.181679 -0.000001 0.000001 0.000001 0.000000 -0.000001 0.000000 -0.752122 -2.464249 11.432803 -0.572988 1.659202 28.595480 0.000001 -0.000000 0.000001 0.000000 0.000002 0.000001 2.833587 -8.577579 18.784729 -0.989944 3.764513 37.435697 0.000001 0.000001 -0.000001 0.000001 0.000001 -0.000001 5.173441 -14.222562 22.499171 -1.322236 7.709497 38.321415 -0.000001 -0.000000 0.000002 -0.000001 -0.000000 0.000002 -89.480485 -6.357013 27.172200 81.941520 5.717371 -8.337112 0.632580 0.532625 -5.136109 1.666193 5.986600 -6.575422 0.000000 0.000000 -0.000001 -71.512197 -2.541241 -24.216084 99.343332 -3.588636 7.976108 0.840328 1.134082 7.143826 7.471908 -8.636451 7.049923 -0.000001 0.000001 0.000000 
-6.675823 20.406357 318.825684 311.816768 -25.823852 34.896294 7.616473 -1.649673 -3.420928 15.284199 -0.734467 -3.056258 15.284201 -0.734466 -3.056269 44.196255 -0.752058 3.026904 -15.762147 1.107953 -5.689568 0.000002 0.000001 0.000002 -0.531593 -14.165857 -21.078464 -23.258126 -4.816811 -24.516851 11.661761 -35.246877 -2.687995 14.688824 -11.150762 15.916018 9.157206 4.803415 -5.500274 -0.323815 0.057822 0.787503 0.000008 -0.000003 0.000000 0.000000 0.000000 -0.000001 -2.914629 -10.926056 -49.695425 -2.843354 -3.065309 -56.861181 -0.000000 -0.000000 0.000000 0.000000 -0.000000 -0.000000 -0.712404 6.203848 -59.750427 -3.370253 -4.777529 -62.480685 0.000000 0.000004 0.000000 -0.000000 -0.000000 -0.000000 0.020873 13.065319 -76.396615 -2.496959 -4.191156 -72.718292 0.000001 -0.000002 0.000002 -0.000001 0.000001 -0.000004 2.056529 17.214180 -80.056135 -1.446024 -6.217849 -80.101925 -0.000002 0.000000 0.000002 -0.000000 -0.000002 -0.000002 -0.175900 32.824147 12.328955 -17.176343 6.366512 11.806685 34.188758 26.455896 0.124884 32.017550 9.028757 -22.473505 -29.923270 4.587729 -3.493935 3.472838 -9.158308 -2.352144 0.000005 0.000008 0.000008 0.000001 0.000000 0.000000 -1.534589 5.039951 3.388609 0.197645 -1.310133 14.927993 0.000000 -0.000001 -0.000000 -0.000000 -0.000001 -0.000000 -0.838215 -1.732133 9.253173 -0.440538 1.398819 25.328110 0.000002 -0.000000 0.000003 0.000000 -0.000000 0.000001 3.243280 -10.592400 13.798381 -0.989252 3.763547 37.422104 -0.000000 -0.000000 0.000003 0.000001 -0.000000 0.000001 7.289560 -21.304729 19.529541 -1.114990 7.426890 33.738266 -0.000000 0.000000 0.000001 -0.000001 0.000001 0.000000 -87.450901 -5.703583 25.058700 78.058127 8.916722 -8.020968 0.289879 0.984877 -4.526412 0.283129 5.463716 -5.422327 -0.000001 -0.000000 -0.000000 -83.096286 -10.959234 -25.802592 101.925752 -7.588478 8.407040 1.157509 1.926430 3.649527 14.848228 -11.599012 10.281533 -0.000000 -0.000001 -0.000000 
